<?xml version="1.0" encoding="UTF-8" standalone="no"?>
<!DOCTYPE svg PUBLIC "-//W3C//DTD SVG 20010904//EN"
              "http://www.w3.org/TR/2001/REC-SVG-20010904/DTD/svg10.dtd">

<svg xmlns="http://www.w3.org/2000/svg"
     width="1in" height="1in"
     viewBox="0 0 300 300">
  <path id="選択範囲 #1"
        fill="black" stroke="black" stroke-width="1"
        d="M 223.00,4.30
           C 225.74,4.09 226.20,4.04 229.00,4.30
             229.00,4.30 243.58,4.30 243.58,4.30
             249.75,5.22 262.27,11.12 266.67,15.47
             269.59,18.35 270.23,20.68 272.19,24.00
             273.84,26.80 275.67,28.89 276.86,32.00
             279.14,37.96 278.93,45.72 279.00,52.00
             279.00,52.00 279.82,62.00 279.82,62.00
             279.82,62.00 278.28,77.00 278.28,77.00
             277.49,83.70 278.00,86.89 275.78,94.00
             272.81,103.50 261.46,128.54 255.61,136.00
             243.69,151.20 220.90,168.22 204.00,177.90
             204.00,177.90 194.17,182.08 194.17,182.08
             194.17,182.08 188.91,186.38 188.91,186.38
             188.91,186.38 177.00,193.94 177.00,193.94
             170.36,198.26 161.22,206.34 155.09,211.69
             152.04,214.36 146.82,219.35 143.00,220.31
             137.42,221.70 132.21,215.72 128.92,211.96
             128.92,211.96 100.00,181.04 100.00,181.04
             95.87,177.07 88.87,172.61 90.99,166.00
             92.47,161.37 96.44,157.86 99.22,154.00
             102.26,149.77 113.12,133.16 114.79,129.00
             116.48,124.80 116.63,120.37 117.46,116.00
             118.88,108.48 123.09,90.73 125.86,84.00
             125.86,84.00 141.40,54.00 141.40,54.00
             146.51,47.02 152.36,42.17 159.00,36.80
             180.69,19.27 196.78,12.92 223.00,4.30 Z
           M 62.00,192.53
           C 68.90,191.97 70.16,195.87 73.72,201.00
             78.78,208.30 83.02,215.31 88.95,222.00
             88.95,222.00 105.01,238.91 105.01,238.91
             108.69,242.41 113.65,245.59 114.57,251.00
             115.55,256.82 109.69,262.26 106.00,266.00
             95.54,276.58 98.84,272.72 88.00,279.84
             78.41,286.13 75.84,289.20 64.00,291.39
             54.33,293.17 47.50,293.70 38.00,290.30
             32.65,288.39 31.22,286.85 27.00,283.27
             17.73,275.41 10.16,265.77 10.00,253.00
             10.00,253.00 10.00,243.00 10.00,243.00
             10.03,222.07 22.99,214.24 39.00,204.32
             46.32,199.78 53.59,194.72 62.00,192.53 Z" />
</svg>
